# xmcd
#
# Track frame offsets: 
#        150
#        19852
#        37432
#        59552
#        81465
#        101225
#        122660
#        134887
#        154605
#        172310
#        191197
#        207700
#        231800
#        251025
#        272247
#        290770
#        314595
#
# Disc length: 4478 seconds
#
# Revision: 3
# Processed by: cddbd v1.5.2PL0 Copyright (c) Steve Scherf et al.
# Submitted via: ExactAudioCopy v0.99pb5
#
DISCID=25117c11
DTITLE=李克勤 - 寶麗金88極品音色系列: 李克勤
DYEAR=1996
DGENRE=Pop
TTITLE0=一生不變
TTITLE1=深深深
TTITLE2=大會堂演奏廳
TTITLE3=月半小夜曲
TTITLE4=破曉時份
TTITLE5=眷戀
TTITLE6=舊歡如夢
TTITLE7=只想您會意
TTITLE8=依然相愛
TTITLE9=萬千寵愛在一身
TTITLE10=一生掛念你
TTITLE11=藍月亮
TTITLE12=一千零一夜
TTITLE13=夏日之神話
TTITLE14=雨中街頭劇
TTITLE15=仍是老地方
TTITLE16=命運符號
EXTD=YEAR: 1996
EXTT0=
EXTT1=
EXTT2=
EXTT3=
EXTT4=
EXTT5=
EXTT6=
EXTT7=
EXTT8=
EXTT9=
EXTT10=
EXTT11=
EXTT12=
EXTT13=
EXTT14=
EXTT15=
EXTT16=
PLAYORDER=
